<svg id="canvas" height="auto" xmlns="http://www.w3.org/2000/svg" version="1.1" xmlns:xlink="http://www.w3.org/1999/xlink" xmlns:svgjs="http://svgjs.dev/svgjs" viewBox="0 0 900 512" width="auto" style="width: auto; height: auto;"><rect width="900" height="512" fill="transparent"/><g stroke-opacity="1" stroke="#83bae3" transform="matrix(1,0,0,1,72.16739451964133,44.75025325123086)"><path d="M101.46921570210088,-23.131148187743452C108.31554233671048,4.655211338071204,94.17403731550488,66.50176475970466,73.18442353766721,84.50660625552474C52.19480975982955,102.51144775134483,1.9366323387207522,101.25106265613783,-24.468466964925085,84.89790078717705C-50.873566268570926,68.54473891821627,-80.40381398618639,14.632750729343588,-85.2461722842078,-13.61236495823993C-90.08853058222921,-41.85748064582344,-73.08138942208981,-73.13959568147018,-53.522616753053576,-84.57279333832406C-33.96384408401734,-96.00599099517794,6.274491654150562,-92.45182509112664,32.10646373000964,-82.2115508993632C57.93843580586871,-71.97127670759977,94.62288906749129,-50.91750771355811,101.46921570210088,-23.131148187743452C108.31554233671048,4.655211338071204,94.17403731550488,66.50176475970466,73.18442353766721,84.50660625552474" fill-opacity="0.25" fill="#83bae3"/></g><g stroke-opacity="1" stroke="#83bae3" transform="matrix(1,0,0,1,32.45035779910547,171.81095096574836)"><path d="M120.30861220027117,23.397299231966166C117.16941284513484,62.2001119557832,74.11801891659442,120.56570575503366,49.061290273961625,124.53203527416898C24.004561631328833,128.4983647933043,-5.627538239899678,60.197680438695414,-30.031759655525576,47.19527634677807C-54.435981071151474,34.19287225486073,-90.62261683431332,69.00784114859312,-97.36403821979376,46.51761072266491C-104.10545960527419,24.027380296736712,-98.02370873917039,-61.94569757689143,-70.48028796840816,-87.74610620879112C-42.93686719764594,-113.5465148406908,36.09833637666638,-126.8087419755261,67.89648640477961,-108.28484106873323C99.69463643289284,-89.76094016194035,123.4478115554075,-15.405513491850868,120.30861220027117,23.397299231966166C117.16941284513484,62.2001119557832,74.11801891659442,120.56570575503366,49.061290273961625,124.53203527416898" fill-opacity="0.25" fill="#83bae3"/></g><g stroke-opacity="1" stroke="#83bae3" transform="matrix(1,0,0,1,80.531850905222,334.48394484965644)"><path d="M97.95987178128647,-1.496076523636269C87.30083971599986,26.694854589138426,29.530571342817403,63.46680005486664,6.345567066030274,84.57279333832406C-16.839437210756856,105.67878662178148,-21.848504277468102,134.87715864891982,-41.15015387943631,125.13988317710827C-60.45180348140452,115.40260770529673,-108.51510967776908,57.53198582276241,-109.46433054577898,26.149140507454774C-110.41355141378888,-5.23370480785286,-76.80616075475051,-44.70353307377438,-46.8454790874957,-63.15718871473753C-16.884797420240883,-81.61084435570068,46.16553431295287,-94.84964537017433,70.2997594577499,-84.57279333832412C94.43398460254693,-74.2959413064739,108.61890384657308,-29.687007636410964,97.95987178128647,-1.496076523636269C87.30083971599986,26.694854589138426,29.530571342817403,63.46680005486664,6.345567066030274,84.57279333832406" fill-opacity="0.25" fill="#83bae3"/></g><g stroke-opacity="1" stroke="#83bae3" transform="matrix(1,0,0,1,36.27613534559945,446.4163806335462)"><path d="M122.0005747254753,-21.718002390341155C112.01256215455004,12.983252624146623,38.90814196303877,53.83881233191333,7.059262592961158,75.20388773100083C-24.789616777116454,96.56896313008833,-47.5596741567238,119.00716605319455,-69.09270149499035,106.47245000418381C-90.6257288332569,93.93773395517307,-127.15613108093167,31.836465327354368,-122.13890143663815,-0.004408563063613258C-117.12167179234463,-31.845282453481595,-70.51036353842106,-62.406254372847016,-38.98932362922925,-84.57279333832406C-7.46828372003743,-106.7393323038011,40.15568829272867,-143.47944084725634,66.98733801851276,-133.00364235592585C93.81898774429685,-122.52784386459537,131.98858729640057,-56.41925740482893,122.0005747254753,-21.718002390341155C112.01256215455004,12.983252624146623,38.90814196303877,53.83881233191333,7.059262592961158,75.20388773100083" fill-opacity="0.25" fill="#83bae3"/></g><g stroke-opacity="1" stroke="#83bae3" transform="matrix(1,0,0,1,182.44217186433602,68.81349451560709)"><path d="M107.55136676218606,-2.1316282072803006e-14C103.51659268650681,24.13425887682745,71.82148638560848,64.76825571141676,48.82018359619193,75.27868446081317C25.81888080677538,85.78911321020958,-6.043711041614575,76.11530237172633,-30.45644997431323,63.06257249637847C-54.86918890701189,50.009842621030614,-98.49379394624219,22.223591547695232,-97.65625,-3.037694791273971C-96.81870605375781,-28.298981130243174,-53.87869930523796,-77.42361653595714,-25.431186296860062,-88.50514553743675C3.016326711517838,-99.58667453891636,50.86506920709306,-84.27772638972444,73.0288280502674,-69.52686880015165C95.19258689344176,-54.77601121057886,111.58614083786532,-24.13425887682749,107.55136676218606,-2.1316282072803006e-14C103.51659268650681,24.13425887682745,71.82148638560848,64.76825571141676,48.82018359619193,75.27868446081317" fill-opacity="0.25" fill="#83bae3"/></g><g stroke-opacity="1" stroke="#83bae3" transform="matrix(1,0,0,1,144.3516823890424,197.6901356179032)"><path d="M114.6378243500601,-2.0934470644533434C109.40489242775092,26.438155758080935,83.10976760183334,90.02736494130107,59.471258171254455,105.85082371218449C35.83274874067557,121.67428248306791,0.038854352995560504,106.965135797035,-27.193232233413227,92.84730556084713C-54.42531881982201,78.72947532465926,-105.97127855722019,51.23501958367903,-103.92126134719828,21.143842295057297C-101.87124413717638,-8.94733499356444,-47.358147481999765,-73.28598558453686,-14.893128973281804,-87.69975817088327C17.571889535436156,-102.11353075722968,69.2803574845525,-79.6065117407595,90.86884970510948,-65.33879322302118C112.45734192566647,-51.07107470528286,119.87075627236928,-30.62504988698762,114.6378243500601,-2.0934470644533434C109.40489242775092,26.438155758080935,83.10976760183334,90.02736494130107,59.471258171254455,105.85082371218449" fill-opacity="0.25" fill="#83bae3"/></g><g stroke-opacity="1" stroke="#83bae3" transform="matrix(1,0,0,1,190.74809632476763,303.5324129354275)"><path d="M101.75884797414412,-2.1316282072803006e-14C102.15106474163757,28.65243168873561,54.36515097775707,46.770579175404364,37.26607885523373,63.100184755698564C20.167006732710394,79.42979033599276,18.261641857674444,104.78344054430138,-0.8355847609959,97.97763348176521C-19.932811379666244,91.17182641922903,-72.52801034611764,60.381019006309835,-77.31728085678833,22.265342380481528C-82.10655136745902,-15.85033424534678,-48.27621767619689,-108.86980164700518,-29.571207825019997,-130.71642627320463C-10.866197973843104,-152.5630508994041,13.024435617078996,-130.60047642224933,34.912778250273014,-108.81440537671523C56.801120883467036,-87.02833433118113,101.36663120665067,-28.652431688735653,101.75884797414412,-2.1316282072803006e-14C102.15106474163757,28.65243168873561,54.36515097775707,46.770579175404364,37.26607885523373,63.100184755698564" fill-opacity="0.25" fill="#83bae3"/></g><g stroke-opacity="1" stroke="#83bae3" transform="matrix(1,0,0,1,149.03012377243098,457.0757133490172)"><path d="M73.42740283270321,14.328806941326562C76.3859278282628,48.0990540200774,114.11049302807177,95.03808165172214,87.83795460807892,103.26158857844554C61.56541618808606,111.48509550516894,-49.10436376748424,82.0779708231336,-84.20782768725395,63.66984850166695C-119.31129160702366,45.2617261802003,-135.6699047613386,18.63324724027824,-122.78282891053935,-7.187145350354392C-109.89575305974009,-33.00753794098702,-39.03031150666847,-75.89038228484463,-6.885372582458345,-91.25250704212883C25.25956634175178,-106.61463179941302,56.70134206552781,-116.95677955796874,70.0868046347214,-99.35989389405951C83.472267203915,-81.76300823015028,70.46887783714362,-19.44144013742428,73.42740283270321,14.328806941326562C76.3859278282628,48.0990540200774,114.11049302807177,95.03808165172214,87.83795460807892,103.26158857844554" fill-opacity="0.25" fill="#83bae3"/></g><g stroke-opacity="1" stroke="#83bae3" transform="matrix(1,0,0,1,279.45377929424217,35.74803971912304)"><path d="M94.13768739523809,42.255523336745846C94.14931943439021,70.9955172357437,93.99190346762578,57.803818697548,73.18986831641267,63.50465470506833C52.38783316519957,69.20549071258867,-2.052367565113162,91.08434584483452,-30.67452351204051,76.46053938186783C-59.29667945896786,61.83673291890114,-92.17519022945955,6.628549744022973,-98.54306736515139,-24.238184072731798C-104.91094450084323,-55.10491788948657,-97.49231023396682,-94.62367608262961,-68.88178632619159,-108.73986351866078C-40.271262418416356,-122.85605095469195,45.95016379459503,-134.10120649815326,73.12007608149997,-108.93530868891881C100.28998836840492,-83.76941087968437,94.12605535608597,13.51552943774799,94.13768739523809,42.255523336745846C94.14931943439021,70.9955172357437,93.99190346762578,57.803818697548,73.18986831641267,63.50465470506833" fill-opacity="0.25" fill="#83bae3"/></g><g stroke-opacity="1" stroke="#83bae3" transform="matrix(1,0,0,1,288.16912312823007,197.50764872779294)"><path d="M79.52047268572463,-29.803940965132036C69.8301230715056,2.416485653187763,53.661985262162105,65.05007655521578,35.13151181404128,88.16388926671934C16.601038365920456,111.2777019782229,-12.782311782819118,129.3761536850904,-31.66236800300034,108.87893530388934C-50.542424223181555,88.38171692268826,-76.72796515054203,-7.0271650820020035,-78.14882550704604,-34.81942102048713C-79.56968586355005,-62.611676958972254,-68.75793597642468,-46.15139208990269,-40.18753014202442,-57.87460032702141C-11.617124307624174,-69.59780856414014,73.3222756947306,-109.837113670181,93.27360949935544,-105.15867044319944C113.22494330398028,-100.48022721621788,89.21082229994366,-62.024367583451834,79.52047268572463,-29.803940965132036C69.8301230715056,2.416485653187763,53.661985262162105,65.05007655521578,35.13151181404128,88.16388926671934" fill-opacity="0.25" fill="#83bae3"/></g><g stroke-opacity="1" stroke="#83bae3" transform="matrix(1,0,0,1,265.03206427181254,304.84476973720047)"><path d="M91.84977314295713,21.122057331700766C93.85995677731506,48.98294229537199,76.32852914882389,60.63471557343288,48.828125000000014,67.68882206336576C21.327720851176135,74.74292855329864,-48.73858924998615,74.72816661519235,-73.15265174998615,63.446696271298066C-97.56671424998615,52.165225927403775,-105.2898909823687,22.26342816583336,-97.65625,1.4210854715202004e-14C-90.0226090176313,-22.263428165833332,-49.754684721415984,-53.554458103925064,-27.350805855773913,-70.133872723702C-4.946926990131846,-86.71328734347892,16.900260027397227,-114.68580939456204,36.7670231938524,-99.47648771866159C56.63378636030758,-84.26716604276113,89.8395895085992,-6.738827631970459,91.84977314295713,21.122057331700766C93.85995677731506,48.98294229537199,76.32852914882389,60.63471557343288,48.828125000000014,67.68882206336576" fill-opacity="0.25" fill="#83bae3"/></g><g stroke-opacity="1" stroke="#83bae3" transform="matrix(1,0,0,1,274.3332530872154,447.1861621643486)"><path d="M97.65625,-1.3997263953806893C95.40867491126731,19.70019270003847,52.60096309809966,45.88150698895081,21.397276048085637,60.21026027790161C-9.806411001928389,74.5390135668524,-69.695721191213,102.0141792724339,-89.56587230008415,84.57279333832409C-109.43602340895531,67.13140740421427,-103.78324364802451,-13.792459899347943,-97.82363060514126,-44.43805532675727C-91.86401756225801,-75.0836507541666,-75.92592024038854,-95.64224606482252,-53.8081940427847,-99.30077922613187C-31.690467845180866,-102.95931238744122,9.63865257335097,-82.70609643307188,34.88272658048175,-66.38925429461335C60.126800587612536,-50.072412156154826,99.90382508873269,-22.49964549079985,97.65625,-1.3997263953806893C95.40867491126731,19.70019270003847,52.60096309809966,45.88150698895081,21.397276048085637,60.21026027790161" fill-opacity="0.25" fill="#83bae3"/></g><g stroke-opacity="1" stroke="#83bae3" transform="matrix(1,0,0,1,414.1170976891918,42.64912718841715)"><path d="M57.20838383654065,-37.545142496282686C64.16999891070692,-2.4746524794622573,93.56729964529816,89.54272877610182,73.19058173615332,105.92225307041822C52.813863827008475,122.30177736473462,-33.16366839703474,75.86106154086805,-65.05192361832842,60.73200326961567C-96.94017883962209,45.602944998363284,-124.8605112120135,39.56439523151109,-118.13894959160876,15.147903442903946C-111.41738797120402,-9.2685883457032,-49.64919404302738,-65.82551571645917,-24.722553895899964,-85.76694746202722C0.20408625122744795,-105.70837920759527,17.765735002415585,-112.53765452479509,31.420891291155687,-104.50068703050434C45.076047579895786,-96.46371953621359,50.24676876237437,-72.61563251310312,57.20838383654065,-37.545142496282686C64.16999891070692,-2.4746524794622573,93.56729964529816,89.54272877610182,73.19058173615332,105.92225307041822" fill-opacity="0.25" fill="#83bae3"/></g><g stroke-opacity="1" stroke="#83bae3" transform="matrix(1,0,0,1,373.84165928809466,161.39728722581745)"><path d="M112.76735432910384,38.09343064313095C121.17276221245996,63.23121351587921,91.88755525822083,56.039874694629724,64.22314490723481,60.574895191156344C36.558734556248794,65.10991568768297,-29.802067018514077,76.02147919119444,-53.2191077768123,65.30355362229068C-76.63614853511052,54.58562805338691,-75.12027067808387,23.879155865024895,-76.27909964255453,-3.7326582222662665C-77.43792860702519,-31.34447230955743,-75.18371443857836,-85.94747359761179,-60.172081563636254,-100.36733090145628C-45.16044868869415,-114.78718820530078,-15.032541708358588,-113.32859563609775,13.790697607098098,-90.2518020453332C42.613936922554785,-67.17500845456867,104.36194644574772,12.95564777038269,112.76735432910384,38.09343064313095C121.17276221245996,63.23121351587921,91.88755525822083,56.039874694629724,64.22314490723481,60.574895191156344" fill-opacity="0.25" fill="#83bae3"/></g><g stroke-opacity="1" stroke="#83bae3" transform="matrix(1,0,0,1,383.93652772828773,289.3289441855333)"><path d="M97.65625,-13.035233324225779C100.4148912978935,11.988048136912091,70.54615636827616,51.701628396911154,38.563349104702105,65.5668954285031C6.580541841128056,79.43216246009506,-73.06480532406204,79.61640841099228,-94.2405935814443,70.15636886532593C-115.41638183882657,60.69632931965958,-98.97088311956037,34.90986471822116,-88.49138043959145,8.806658154505016C-78.01187775962254,-17.296548409211123,-49.78072446111953,-70.89962860149937,-31.363577501630772,-86.4628705169709C-12.946430542142014,-102.02611243244242,0.5081967337359643,-96.8107328704483,22.011501317341093,-84.57279333832412C43.51480590094622,-72.33485380619993,94.8976087021065,-38.05851478536365,97.65625,-13.035233324225779C100.4148912978935,11.988048136912091,70.54615636827616,51.701628396911154,38.563349104702105,65.5668954285031" fill-opacity="0.25" fill="#83bae3"/></g><g stroke-opacity="1" stroke="#83bae3" transform="matrix(1,0,0,1,386.14108593714604,416.95619153308394)"><path d="M73.29371863679259,16.58808299979814C70.06924526404423,36.88341575097182,54.207028748909465,57.79918817445084,32.638292013457416,68.79684779166399C11.069555278005371,79.79450740887715,-32.037988594322684,90.94183991474452,-56.11870177591969,82.57404070307706C-80.1994149575167,74.2062414914096,-112.50023782264795,39.28177582162999,-111.84598707612466,18.590052521659274C-111.19173632960137,-2.101670778311444,-79.49838385112531,-29.648765557241013,-52.19319729677993,-41.57629909674725C-24.88801074243455,-53.503832636253485,31.07064626101885,-62.66921239813569,51.985132249947604,-52.975148715378126C72.89961823887636,-43.28108503262056,76.51819200954095,-3.707249751375546,73.29371863679259,16.58808299979814C70.06924526404423,36.88341575097182,54.207028748909465,57.79918817445084,32.638292013457416,68.79684779166399" fill-opacity="0.25" fill="#83bae3"/></g><g stroke-opacity="1" stroke="#83bae3" transform="matrix(1,0,0,1,498.0266001959732,65.4989229238115)"><path d="M84.2740668126701,2.0361180071261487C83.90762210690234,39.538217034198915,48.77076498666611,106.20713599694669,22.526644751000294,125.9189407039571C-3.7174754846655205,145.63074541096753,-51.58226485362813,139.3011616815081,-73.1906546013248,120.30694624918866C-94.79904434902146,101.31273081686922,-117.76519660628374,38.873173977355364,-107.12369373517967,11.953648110040518C-96.4821908640756,-14.965877757274328,-31.316471828164833,-22.70232535994709,-9.341637374700412,-41.21020895470042C12.63319707876401,-59.71809254945375,9.122695621045096,-106.3013746187839,24.72531298560685,-99.09365345847947C40.3279303501686,-91.88593229817504,84.64051151843786,-35.46598101994662,84.2740668126701,2.0361180071261487C83.90762210690234,39.538217034198915,48.77076498666611,106.20713599694669,22.526644751000294,125.9189407039571" fill-opacity="0.25" fill="#83bae3"/></g><g stroke-opacity="1" stroke="#83bae3" transform="matrix(1,0,0,1,484.7922833001478,197.17885805335396)"><path d="M71.01132930799535,-24.040068903519245C78.52844003213437,11.941251330154646,97.0221186972098,86.6402858499471,72.9884944892704,104.74268754260065C48.95487028133098,122.84508923525419,-44.9988858762577,100.61999879668802,-73.19041593964113,84.574341252402C-101.38194600302455,68.52868370811596,-108.06071004796964,38.60506658607482,-96.16068589103016,8.468742276884477C-84.26066173409068,-21.667582032305866,-22.464690337248687,-76.30794191335218,-1.7902709980042744,-96.24360460274005C18.884148341240138,-116.17926729212792,15.752230093436374,-123.1791564759795,27.885830144436312,-111.1452338594427C40.01943019543625,-99.1113112429059,63.49421858385634,-60.02138913719314,71.01132930799535,-24.040068903519245C78.52844003213437,11.941251330154646,97.0221186972098,86.6402858499471,72.9884944892704,104.74268754260065" fill-opacity="0.25" fill="#83bae3"/></g><g stroke-opacity="1" stroke="#83bae3" transform="matrix(1,0,0,1,501.3331758665992,296.29209123766253)"><path d="M124.94562813365962,42.28816035198599C120.69391586996433,70.89728564689666,56.05193883852817,72.7886273223046,23.31785141782817,73.51416431716504C-9.41623600287183,74.23970131202547,-51.29654615423567,58.286959132435875,-71.45889639054036,46.641382321148605C-91.62124662684505,34.995805509861334,-93.90946255038683,22.226526817983586,-97.65625,3.640703449441432C-101.40303744961317,-14.945119919100723,-118.35368358821937,-47.91000940648093,-93.93962108821938,-64.87355789010434C-69.5255585882194,-81.83710637372775,12.34725012968677,-116.00087382598072,48.828124999999936,-98.140587452299C85.3089998703131,-80.28030107861728,129.1973403973549,13.679035057075314,124.94562813365962,42.28816035198599C120.69391586996433,70.89728564689666,56.05193883852817,72.7886273223046,23.31785141782817,73.51416431716504" fill-opacity="0.25" fill="#83bae3"/></g><g stroke-opacity="1" stroke="#83bae3" transform="matrix(1,0,0,1,527.6650259776894,421.88164506937164)"><path d="M78.26560076349286,-41.97440985462593C90.51387667825516,-9.799815125559505,104.69709830485658,63.50989012556144,82.87306070978993,84.58535762482961C61.04902311472327,105.66082512409778,-19.39815873733047,99.27689953366642,-52.678624806907095,84.47839514098308C-85.95909087648371,69.67989074829974,-119.84446128812247,22.676743149235524,-116.80973570766986,-4.2056687312704355C-113.77501012721724,-31.088080611776395,-55.502461479005746,-59.43998580566958,-34.47027132419142,-76.81607614205267C-13.438081169377096,-94.19216647843575,-9.405906793397941,-114.26915513080672,9.383405221216103,-108.46221074956894C28.17271723583015,-102.65526636833116,66.01732484873055,-74.14900458369236,78.26560076349286,-41.97440985462593C90.51387667825516,-9.799815125559505,104.69709830485658,63.50989012556144,82.87306070978993,84.58535762482961" fill-opacity="0.25" fill="#83bae3"/></g><g stroke-opacity="1" stroke="#83bae3" transform="matrix(1,0,0,1,645.635460970265,47.1710019075642)"><path d="M128.80730505279033,-6.244255556479175C135.5401542038085,27.968179002780573,100.66134699880759,81.15637924689165,71.05542753985324,103.18569213352293C41.449508080898894,125.21500502015422,-20.70959877762686,140.0782926239375,-48.82821170093573,125.93162176330854C-76.94682462424461,111.78495090267958,-94.20332599146558,52.35011839675182,-97.65625,18.30566696974917C-101.10917400853442,-15.73878445725348,-90.93151952443294,-58.26932310007656,-69.54575575214224,-78.33508679870735C-48.15999197985154,-98.40085049733814,-2.4005108337445833,-114.1040537624069,30.65833263374418,-102.08891522203554C63.717176101232944,-90.07377668166417,122.07445590177215,-40.45669011573892,128.80730505279033,-6.244255556479175C135.5401542038085,27.968179002780573,100.66134699880759,81.15637924689165,71.05542753985324,103.18569213352293" fill-opacity="0.25" fill="#83bae3"/></g><g stroke-opacity="1" stroke="#83bae3" transform="matrix(1,0,0,1,599.5603735315441,188.96036987565748)"><path d="M100.67878573039732,-8.505384028602876C105.33383615219523,24.54497087824442,91.37860580510738,69.32309333839424,72.88358223257748,84.95251405750601C54.38855866004758,100.58193477661777,17.70131833218736,97.23499455315076,-10.29135570478212,85.27114028606766C-38.284029741751596,73.30728601898457,-91.74262068371664,35.23913900788011,-95.0724619892394,13.169388455007471C-98.40230329476216,-8.900362097865173,-53.608027153090276,-26.06086239140399,-30.270403537918696,-47.1473630311682C-6.93277992274712,-68.23386367093241,23.12841482373737,-119.78994521733864,44.95327970179004,-113.34961538357776C66.7781445798427,-106.90928554981687,96.02373530859941,-41.55573893545017,100.67878573039732,-8.505384028602876C105.33383615219523,24.54497087824442,91.37860580510738,69.32309333839424,72.88358223257748,84.95251405750601" fill-opacity="0.25" fill="#83bae3"/></g><g stroke-opacity="1" stroke="#83bae3" transform="matrix(1,0,0,1,629.2252052727569,325.81363322446185)"><path d="M116.38956273466081,0.3695398124632092C123.56328595856749,21.003330823607627,93.81640943971156,49.54387521875887,70.04160925687705,63.57775080640235C46.26680907404254,77.61162639404583,-3.329771575499361,101.93705033413832,-26.25923836234621,84.57279333832409C-49.188705149193055,67.20853634250986,-63.773710357928394,-18.542515840764402,-67.53519146420403,-40.60779116848301C-71.29667257047967,-62.67306649620162,-64.58386856294021,-44.54932461265739,-48.82812500000004,-47.81885862798758C-33.07238143705987,-51.088392643317775,-0.5370113756731243,-68.25639500053929,26.999269913437015,-60.224995260464155C54.535551202547154,-52.193595520389025,109.21583951075414,-20.264251198681208,116.38956273466081,0.3695398124632092C123.56328595856749,21.003330823607627,93.81640943971156,49.54387521875887,70.04160925687705,63.57775080640235" fill-opacity="0.25" fill="#83bae3"/></g><g stroke-opacity="1" stroke="#83bae3" transform="matrix(1,0,0,1,608.7677794070026,440.45503162056036)"><path d="M88.49676837006,-3.752432171371737C85.12588081611517,21.281606852580722,56.10804190419125,61.42005921596435,34.69694715920684,74.94199461579448C13.285852414222436,88.46393001562461,-20.0629410888199,85.85395836596993,-39.969800099846445,77.37918022760907C-59.87665911087299,68.90440208924821,-81.88055558220843,47.82931519613771,-84.74420690695243,24.093325785629318C-87.60785823169643,0.3573363751209193,-80.42945461328179,-48.47749534984973,-57.15170804831043,-65.03675623544133C-33.873961483339066,-81.59601712103293,30.647526413147357,-85.47629353859855,54.92227248287576,-75.26223952792029C79.19701855260416,-65.04818551724202,91.86765592400482,-28.786471195324197,88.49676837006,-3.752432171371737C85.12588081611517,21.281606852580722,56.10804190419125,61.42005921596435,34.69694715920684,74.94199461579448" fill-opacity="0.25" fill="#83bae3"/></g><g stroke-opacity="1" stroke="#83bae3" transform="matrix(1,0,0,1,726.3104536328206,80.074600544584)"><path d="M132.51249775876553,-12.016461215176918C140.53103382623365,23.019199583459702,88.3174532538761,84.44369213255281,54.093770496754956,104.1458187060047C19.87008773963381,123.8479452794566,-41.01346994673442,126.61362215977888,-72.82959878396136,106.19629822553443C-104.6457276211883,85.77897429128998,-140.22653405278376,10.921840405887327,-136.80300252660672,-18.358124899461952C-133.37947100042967,-47.638090204811235,-76.08600239665796,-54.86515674216906,-52.288409626899124,-69.48349360656124C-28.49081685714029,-84.10183047095342,-24.817597138997826,-115.6459848177124,5.982554091946283,-106.06814608581502C36.78270532289039,-96.49030735391763,124.49396169129741,-47.05212201381354,132.51249775876553,-12.016461215176918C140.53103382623365,23.019199583459702,88.3174532538761,84.44369213255281,54.093770496754956,104.1458187060047" fill-opacity="0.25" fill="#83bae3"/></g><g stroke-opacity="1" stroke="#83bae3" transform="matrix(1,0,0,1,727.654348670487,163.9708757854302)"><path d="M62.299261852930414,21.50060236193014C59.663968517714984,52.24173342349388,71.42094081973784,103.1982101477058,52.554813980832805,106.45686840078771C33.68868714192777,109.71552665386963,-29.2952165589445,51.79580510459384,-50.89749918049976,41.05255188042166C-72.49978180205501,30.30929865624948,-76.87731448398371,61.320032986954125,-77.05888174849872,41.99734905575464C-77.24044901301373,22.674665124555155,-76.22447872436052,-54.885673869383695,-51.98690276758983,-74.88355170677525C-27.74932681081915,-94.8814295441668,49.31887988870534,-94.05394364671227,68.36657399212538,-77.98991796859471C87.41426809554542,-61.92589229047715,64.93455518814585,-9.240528699633597,62.299261852930414,21.50060236193014C59.663968517714984,52.24173342349388,71.42094081973784,103.1982101477058,52.554813980832805,106.45686840078771" fill-opacity="0.25" fill="#83bae3"/></g><g stroke-opacity="1" stroke="#83bae3" transform="matrix(1,0,0,1,753.1233205752205,318.9475504825153)"><path d="M77.04746798165036,-2.5022108909730463C69.14227057217093,34.4122918186603,42.01547977112246,77.48551601536344,24.494153228583922,91.32753495440336C6.972826686045387,105.16955389344328,-9.354087423433509,100.53461240653353,-28.080491273580847,80.54990274326647C-46.80689512372818,60.56519307999942,-85.50109045976235,2.27044938855499,-87.8642698723001,-28.580723025198992C-90.22744928483785,-59.43189543895298,-68.8911690084341,-87.62733869289113,-42.259567748807335,-104.55713173925741C-15.627966489180569,-121.4869247856237,52.04083173038423,-147.16863477811077,71.9253376854605,-130.15948130339672C91.80984364053678,-113.15032782868266,84.95266539112978,-39.41671360060639,77.04746798165036,-2.5022108909730463C69.14227057217093,34.4122918186603,42.01547977112246,77.48551601536344,24.494153228583922,91.32753495440336" fill-opacity="0.25" fill="#83bae3"/></g><g stroke-opacity="1" stroke="#83bae3" transform="matrix(1,0,0,1,722.8239299686135,431.25933318287434)"><path d="M94.62214189230463,10.92412248482669C99.11482511672256,39.1727596686155,105.59863725148232,56.44622728203588,78.14219129917535,71.8551279435778C50.68574534686839,87.26402860511972,-38.18415112400852,120.63441562645637,-70.1165338215372,103.37752645407821C-102.04891651906588,86.12063728170004,-119.62991084227657,-4.357881266903981,-113.45210488599676,-31.686207090691205C-107.27429892971695,-59.01453291447843,-60.48939755696908,-49.60068047723451,-33.04969808385833,-60.592428488645155C-5.609998610747578,-71.58417650005579,29.907451956640614,-109.55612032140034,51.18609195266777,-97.63669515915504C72.46473194869493,-85.71726999690974,90.1294586678867,-17.324514698962115,94.62214189230463,10.92412248482669C99.11482511672256,39.1727596686155,105.59863725148232,56.44622728203588,78.14219129917535,71.8551279435778" fill-opacity="0.25" fill="#83bae3"/></g><g stroke-opacity="1" stroke="#83bae3" transform="matrix(1,0,0,1,840.4757033932356,70.07131896263434)"><path d="M99.11985432522428,24.360506711804483C98.54135145376371,55.03275895134827,101.18352167900845,79.18220757522882,69.71961946297714,84.57279333832406C38.25571724694582,89.9633791014193,-61.76567050161927,66.80514098985047,-89.66355897096359,56.70402129037594C-117.56144744030792,46.60290159090141,-104.47361701491604,47.512210912926875,-97.66771135308879,23.96607514147688C-90.86180569126154,0.41993937002687787,-77.30451634080492,-64.0016607982548,-48.82812500000004,-84.57279333832406C-20.35173365919516,-105.14392587839332,48.53264013753649,-117.61627010729343,73.19063669174054,-99.46072009893868C97.84863324594458,-81.30517009058393,99.69835719668485,-6.311745527739308,99.11985432522428,24.360506711804483C98.54135145376371,55.03275895134827,101.18352167900845,79.18220757522882,69.71961946297714,84.57279333832406" fill-opacity="0.25" fill="#83bae3"/></g><g stroke-opacity="1" stroke="#83bae3" transform="matrix(1,0,0,1,859.5729125997607,191.00830378341954)"><path d="M143.4304986770902,-2.150051947963412C146.9160039186531,28.63091084416627,103.36601140153144,82.64603413128947,69.74115644937724,100.11298341445396C36.11630149722304,117.57993269761846,-33.66917389770171,118.9176045937315,-58.31863103583501,102.65164375102358C-82.96808817396831,86.38568290831567,-76.55900065473122,33.068129948649656,-78.15558637942253,2.517218358206499C-79.75217210411384,-28.03369323223666,-89.0620972805533,-66.13882384221358,-67.8981453839829,-80.65382579163536C-46.73419348741248,-95.16882774105713,13.606684323154418,-97.65675564560277,48.828124999999936,-84.57279333832412C84.04956567684545,-71.48883103104546,139.94499343552732,-32.93101474009309,143.4304986770902,-2.150051947963412C146.9160039186531,28.63091084416627,103.36601140153144,82.64603413128947,69.74115644937724,100.11298341445396" fill-opacity="0.25" fill="#83bae3"/></g><g stroke-opacity="1" stroke="#83bae3" transform="matrix(1,0,0,1,852.7471346521686,328.81852196754136)"><path d="M66.32899203007594,37.01861652059382C61.6795673159732,75.43127470688063,46.45426896822078,93.71661814704471,30.984731784919788,100.24440987440394C15.515194601618795,106.77220160176317,-3.352935316142858,92.37033460395755,-26.48823106973002,76.18536688474919C-49.62352682331718,60.00039916554083,-107.68648274491746,30.174786662602408,-107.82704273660318,3.134603559153824C-107.9676027282889,-23.90557954429476,-55.11631148753426,-63.82804126886387,-27.331591019844367,-86.05573173594233C0.4531294478455301,-108.28342220302079,43.27118289454948,-150.7439306194063,58.8812800695362,-130.23153924331694C74.49137724452292,-109.71914786722759,70.97841674417867,-1.3940416656929955,66.32899203007594,37.01861652059382C61.6795673159732,75.43127470688063,46.45426896822078,93.71661814704471,30.984731784919788,100.24440987440394" fill-opacity="0.25" fill="#83bae3"/></g><g stroke-opacity="1" stroke="#83bae3" transform="matrix(1,0,0,1,832.0777182066713,430.69808789885343)"><path d="M115.67606164008858,-36.26545285610395C115.73113173365371,-9.39572663206641,97.31983524964791,36.91297472275818,73.18972134064389,60.654416892402864C49.05960743163986,84.39585906204755,-0.3700871185578798,119.63449215655734,-29.10462181393558,106.18320016176415C-57.839156509313284,92.73190816697095,-95.48503635515655,12.28048664277868,-99.21748683162231,-20.053335076356294C-102.94993730808807,-52.387156795491265,-80.17878927454274,-74.40129592380134,-51.49932467273016,-87.8197301530457C-22.81986007091759,-101.23816438229005,44.99673639378332,-109.15632000131268,72.85930077925312,-100.56394045182239C100.72186516472291,-91.9715609023321,115.62099154652344,-63.135179080141484,115.67606164008858,-36.26545285610395C115.73113173365371,-9.39572663206641,97.31983524964791,36.91297472275818,73.18972134064389,60.654416892402864" fill-opacity="0.25" fill="#83bae3"/></g></svg>